<svg width="129" height="40" viewBox="0 0 129 40" fill="none" xmlns="http://www.w3.org/2000/svg">
<path d="M119.522 0H7.47954C6.81293 0.00985532 6.14799 0.0700248 5.49034 0.18C4.83284 0.289322 4.19567 0.498366 3.60059 0.799995C3.00572 1.11081 2.46222 1.51222 1.98933 1.99C1.51473 2.45987 1.11845 3.00349 0.815702 3.6C0.512442 4.20134 0.301195 4.84526 0.189102 5.51C0.0781087 6.17086 0.0215559 6.83979 0.0200195 7.51C0.0200195 7.82 0.0200195 8.12 0.0200195 8.43V31.6C0.0200195 31.92 0.0200195 32.22 0.0200195 32.53C0.0215559 33.2002 0.0781087 33.8691 0.189102 34.53C0.302743 35.1912 0.513938 35.8316 0.815702 36.43C1.11955 37.0139 1.51595 37.5442 1.98933 38C2.46293 38.4742 3.0064 38.8722 3.60059 39.18C4.19724 39.4799 4.83366 39.6921 5.49034 39.81C6.14824 39.9167 6.81318 39.9735 7.47954 39.98H121.521C122.187 39.9735 122.852 39.9167 123.51 39.81C124.169 39.6896 124.809 39.4776 125.41 39.18C125.999 38.8695 126.539 38.4717 127.011 38C127.486 37.5271 127.883 36.98 128.185 36.38C128.492 35.7848 128.7 35.1429 128.801 34.48C128.914 33.819 128.977 33.1505 128.99 32.48V31.6C128.99 31.24 128.99 30.88 128.99 30.51V9.53C128.99 9.17 128.99 8.79999 128.99 8.43999V7.52C128.977 6.84952 128.914 6.18097 128.801 5.52C128.696 4.85498 128.488 4.21058 128.185 3.61C127.574 2.40768 126.603 1.42834 125.41 0.809998C124.81 0.511163 124.17 0.302276 123.51 0.189995C122.852 0.0800193 122.187 0.0198575 121.521 0.0100021H119.532L119.522 0Z" fill="#A6A6A6"/>
<path d="M8.39445 39.1199H7.4993C6.87631 39.1117 6.25472 39.0582 5.6394 38.9599C5.06174 38.8549 4.50227 38.6662 3.97841 38.3999C3.46882 38.1406 3.00241 37.8032 2.59591 37.3999C2.18941 36.9957 1.85321 36.5259 1.60131 36.0099C1.33643 35.4876 1.15198 34.9279 1.05428 34.3499C0.95646 33.7279 0.903277 33.0996 0.895142 32.4699C0.895142 32.2599 0.895142 31.5599 0.895142 31.5599V8.45989C0.895142 8.45989 0.895142 7.76989 0.895142 7.56989C0.903277 6.9402 0.95646 6.31191 1.05428 5.68989C1.15198 5.1119 1.33643 4.55219 1.60131 4.02989C1.856 3.5126 2.19183 3.03989 2.59591 2.62989C3.00343 2.21956 3.46935 1.87244 3.97841 1.59989C4.49773 1.33528 5.05468 1.15312 5.62945 1.05989C6.24453 0.958222 6.86612 0.901409 7.48936 0.889893H121.501C122.121 0.900938 122.739 0.957756 123.351 1.05989C123.929 1.15306 124.489 1.3352 125.012 1.59989C126.043 2.13697 126.884 2.98243 127.419 4.01989C127.677 4.53954 127.855 5.09602 127.946 5.66989C128.05 6.29486 128.109 6.92643 128.125 7.55989V8.44989C128.125 8.82989 128.125 9.17989 128.125 9.53989V30.4699C128.125 30.8299 128.125 31.1899 128.125 31.5499V32.4799C128.108 33.0996 128.052 33.7176 127.956 34.3299C127.857 34.9095 127.676 35.4719 127.419 35.9999C127.16 36.5086 126.824 36.9741 126.424 37.3799C126.015 37.7852 125.545 38.1228 125.032 38.3799C124.507 38.6419 123.947 38.8271 123.371 38.9299C122.755 39.0282 122.134 39.0817 121.511 39.0899H8.39445V39.1199Z" fill="black"/>
<path d="M37.7253 25.2801H35.2189V28.7701C36.2547 28.7884 37.2901 28.7114 38.3121 28.5401L38.4016 29.2901C37.2156 29.4954 36.0145 29.5991 34.8111 29.6001H34.264V24.6001H37.6855L37.7253 25.2801ZM39.7841 26.6801H40.8781V27.4501H39.7841V31.2901H38.869V23.8201H39.7841V26.6801Z" fill="white"/>
<path d="M48.288 27.5V28.24H45.4534V29.65H44.5185V28.24H41.5347V27.5H48.288ZM42.3204 25.5C42.3204 24.63 43.315 24 44.9064 24C46.4977 24 47.5023 24.63 47.5023 25.5C47.5023 26.37 46.5077 27 44.9163 27C43.325 27 42.3204 26.38 42.3204 25.5ZM43.315 30.33H47.5222V31.06H42.4099V28.93H43.315V30.33ZM43.315 25.51C43.315 25.98 44.0112 26.29 44.9561 26.29C45.901 26.29 46.5972 25.98 46.5972 25.51C46.5972 25.04 45.9308 24.71 44.9561 24.71C43.9814 24.71 43.2951 25.05 43.2951 25.54L43.315 25.51Z" fill="white"/>
<path d="M55.847 29.6V30.34H49.1334V29.6H52.0277V28.38H49.9888V25.93H54.0666V25.02H49.9788V24.28H54.9518V26.68H50.9038V27.68H55.1906V28.42H52.9427V29.6H55.847Z" fill="white"/>
<path d="M63.406 30.2999H56.6924V29.5999H63.406V30.2999ZM62.5407 25.1999H58.4628V27.1999H62.6003V27.9499H57.5577V24.3999H62.5307L62.5407 25.1999Z" fill="white"/>
<path d="M70.7958 26.3501H66.4594V25.6001H70.7958V26.3501ZM68.6276 29.8701C68.2116 29.8152 67.8341 29.5974 67.577 29.264C67.32 28.9307 67.2043 28.5088 67.255 28.0901C67.3072 27.67 67.5229 27.2879 67.8547 27.0274C68.1865 26.7669 68.6075 26.6492 69.0254 26.7001C69.4104 26.7488 69.7644 26.9374 70.0209 27.2302C70.2773 27.523 70.4185 27.8999 70.4179 28.2901C70.4127 28.5041 70.3656 28.7151 70.2794 28.9109C70.1931 29.1067 70.0693 29.2834 69.915 29.4311C69.7608 29.5787 69.5791 29.6944 69.3804 29.7714C69.1817 29.8485 68.9698 29.8854 68.7569 29.8801L68.6276 29.8701ZM69.7515 25.0501H67.5335V24.3001H69.7813L69.7515 25.0501ZM68.6276 29.1401C68.74 29.1482 68.8529 29.134 68.9597 29.0981C69.0666 29.0623 69.1654 29.0056 69.2505 28.9313C69.3355 28.8569 69.4051 28.7664 69.4552 28.665C69.5054 28.5635 69.5351 28.4531 69.5426 28.3401C69.5507 28.2263 69.5362 28.112 69.5 28.0039C69.4637 27.8958 69.4064 27.7961 69.3314 27.7104C69.2565 27.6248 69.1653 27.5551 69.0632 27.5052C68.9612 27.4553 68.8503 27.4264 68.737 27.4201H68.6276C68.4014 27.4146 68.1821 27.4984 68.0166 27.6536C67.8512 27.8087 67.7527 28.0228 67.7424 28.2501C67.737 28.4775 67.8203 28.698 67.9746 28.8643C68.1289 29.0307 68.3419 29.1297 68.5679 29.1401H68.6276ZM72.2678 26.9101H73.3321V27.6701H72.2977V31.2901H71.3826V23.8201H72.2977L72.2678 26.9101Z" fill="white"/>
<path d="M74.5953 29.9301L74.0681 29.2101C74.8426 28.8765 75.5185 28.3479 76.0307 27.6753C76.5429 27.0027 76.874 26.2088 76.9923 25.3701H74.4858V24.6001H77.967C77.9535 25.7158 77.6308 26.8057 77.0352 27.7473C76.4396 28.6888 75.5946 29.4448 74.5953 29.9301ZM80.2048 31.3001H79.2798V23.8201H80.2048V31.3001Z" fill="white"/>
<path d="M40.9378 16.6001H36.9594L35.9648 19.4701H34.2441L38.0535 8.86011H39.7841L43.5934 19.4701H41.9026L40.9378 16.6001ZM37.3274 15.2801H40.5201L38.9486 10.6001L37.3274 15.2801Z" fill="white"/>
<path d="M51.8785 15.6C51.8785 18 50.6054 19.6 48.6759 19.6C48.1862 19.6263 47.699 19.5137 47.2699 19.275C46.8408 19.0363 46.4871 18.6811 46.2491 18.25V22.08H44.6378V11.78H46.1596V13.07C46.3975 12.6171 46.7562 12.2398 47.1953 11.9802C47.6344 11.7206 48.1368 11.5889 48.6461 11.6C50.5955 11.6 51.8785 13.15 51.8785 15.6ZM50.2573 15.6C50.2573 14.03 49.4517 13 48.2681 13C47.0845 13 46.2789 14.06 46.2789 15.6C46.2789 17.14 47.0845 18.2 48.2681 18.2C49.4517 18.2 50.2573 17.13 50.2573 15.6Z" fill="white"/>
<path d="M60.3724 15.6C60.3724 18 59.0893 19.6 57.1598 19.6C56.6547 19.6229 56.1539 19.4981 55.7179 19.2407C55.2819 18.9834 54.9294 18.6046 54.7031 18.15V21.98H53.1217V11.68H54.6434V12.97C54.8947 12.5358 55.259 12.1787 55.6972 11.9373C56.1353 11.6958 56.6307 11.5792 57.13 11.6C59.0794 11.6 60.3724 13.15 60.3724 15.6ZM58.7412 15.6C58.7412 14.03 57.9356 13 56.752 13C55.5684 13 54.7628 14.06 54.7628 15.6C54.7628 17.14 55.5684 18.2 56.752 18.2C57.9356 18.2 58.7412 17.13 58.7412 15.6Z" fill="white"/>
<path d="M65.9919 16.4601C66.1112 17.4601 67.1257 18.2001 68.5182 18.2001C69.9106 18.2001 70.8058 17.5101 70.8058 16.5601C70.8058 15.6101 70.2289 15.2501 68.8166 14.9101L67.4937 14.6001C65.5045 14.1301 64.6591 13.2201 64.6591 11.7401C64.6492 9.8901 66.2405 8.6001 68.4983 8.6001C70.756 8.6001 72.2579 9.86009 72.3076 11.6901H70.7163C70.6168 10.6301 69.7217 9.9901 68.4784 9.9901C67.2351 9.9901 66.3301 10.6401 66.3301 11.5801C66.3301 12.3301 66.887 12.7701 68.2496 13.1101L69.4133 13.3901C71.5816 13.9101 72.4767 14.7801 72.4767 16.3901C72.4767 18.3901 70.9052 19.6201 68.3988 19.6201C66.0615 19.6201 64.4801 18.4001 64.4204 16.4801L65.9919 16.4601Z" fill="white"/>
<path d="M75.8882 9.8501V11.6801H77.3503V12.9401H75.8882V17.2001C75.8882 17.8701 76.1766 18.2001 76.8231 18.2001H77.3403V19.4501C77.0517 19.5036 76.7584 19.527 76.4651 19.5201C74.9035 19.5201 74.2968 18.9301 74.2968 17.4301V13.0001H73.1829V11.7401H74.2968V9.9101L75.8882 9.8501Z" fill="white"/>
<path d="M78.2156 15.6001C78.2156 13.1701 79.6379 11.6001 81.8658 11.6001C84.0937 11.6001 85.5359 13.1201 85.5359 15.6001C85.5359 18.0801 84.1235 19.6001 81.8857 19.6001C79.6478 19.6001 78.2156 17.9901 78.2156 15.6001ZM83.9047 15.6001C83.9047 13.9301 83.1488 12.9401 81.9155 12.9401C80.6822 12.9401 79.9263 13.9401 79.9263 15.6001C79.9263 17.2601 80.6822 18.2501 81.9155 18.2501C83.1488 18.2501 83.9047 17.2301 83.9047 15.6001Z" fill="white"/>
<path d="M86.8188 11.6801H88.3306V13.0001C88.4339 12.5838 88.6779 12.2165 89.0208 11.9611C89.3637 11.7057 89.7842 11.5781 90.2104 11.6001C90.3944 11.5998 90.5779 11.6199 90.7575 11.6601V13.1401C90.5255 13.0697 90.2834 13.0393 90.0414 13.0501C89.8315 13.0421 89.6222 13.0759 89.4254 13.1496C89.2287 13.2233 89.0484 13.3354 88.8949 13.4795C88.7414 13.6236 88.6178 13.7968 88.5312 13.9891C88.4446 14.1814 88.3967 14.3891 88.3903 14.6001C88.3854 14.6834 88.3854 14.7668 88.3903 14.8501V19.4401H86.8188V11.6801Z" fill="white"/>
<path d="M98.038 17.1501C97.8637 17.8799 97.4319 18.5214 96.8228 18.9554C96.2137 19.3895 95.4687 19.5865 94.726 19.5101C92.4881 19.5101 91.0957 18.0101 91.0957 15.5901C91.0957 13.1701 92.4881 11.5901 94.6564 11.5901C96.8246 11.5901 98.1276 13.0601 98.1276 15.4001V15.9501H92.6871V16.0401C92.661 16.303 92.6871 16.5684 92.7636 16.8211C92.8402 17.0738 92.9658 17.3087 93.1332 17.5123C93.3006 17.716 93.5064 17.8842 93.7388 18.0074C93.9712 18.1306 94.2256 18.2063 94.4873 18.2301C94.5701 18.2351 94.6531 18.2351 94.736 18.2301C95.109 18.2683 95.4843 18.1837 95.8054 17.9889C96.1265 17.7941 96.376 17.4997 96.5163 17.1501H98.038ZM92.697 14.8401H96.5461C96.5637 14.5928 96.5321 14.3445 96.4533 14.1096C96.3745 13.8747 96.2501 13.6579 96.0872 13.4717C95.9243 13.2856 95.7262 13.134 95.5045 13.0255C95.2828 12.9171 95.0418 12.854 94.7956 12.8401H94.6564C94.1288 12.8401 93.6229 13.0508 93.2498 13.4259C92.8768 13.8009 92.6672 14.3097 92.6672 14.8401H92.697Z" fill="white"/>
<path d="M104.523 8.98002H105.756V18.91H104.523V13.91H103.618C103.508 15.68 102.792 17.22 101.35 17.22C99.7587 17.22 99.0525 15.37 99.0525 13.39C99.0525 11.41 99.7587 9.60002 101.35 9.60002C102.762 9.60002 103.478 11.04 103.608 12.75H104.523V8.98002ZM102.444 13.38C102.444 11.92 102.096 10.81 101.37 10.81C100.644 10.81 100.375 11.92 100.375 13.38C100.375 14.84 100.694 15.95 101.37 15.95C102.046 15.95 102.444 14.85 102.444 13.38ZM107.924 8.77002V19.41H106.691V8.77002H107.924Z" fill="white"/>
<path d="M113.474 11.2701C113.431 12.2074 113.654 13.1379 114.117 13.9525C114.58 14.7672 115.264 15.4323 116.09 15.8701L115.324 16.8701C114.192 16.221 113.306 15.2112 112.808 14.0001C112.363 15.3179 111.463 16.4319 110.272 17.1401L109.466 16.1401C110.308 15.65 111.001 14.9366 111.467 14.0777C111.934 13.2189 112.157 12.2476 112.112 11.2701V9.63006H113.474V11.2701ZM118.447 19.4101H117.134V13.6001H115.006V12.4801H117.134V8.81006H118.447V19.4101Z" fill="white"/>
<path d="M24.6363 20.2999C24.6507 19.4645 24.8731 18.6461 25.2831 17.9194C25.6931 17.1927 26.2778 16.5809 26.9836 16.1399C26.5307 15.4969 25.9357 14.9681 25.2455 14.5951C24.5552 14.2221 23.7884 14.0149 23.0051 13.9899C21.3442 13.8099 19.7229 14.9899 18.8676 14.9899C18.0122 14.9899 16.6894 13.9899 15.2771 13.9899C14.365 14.0217 13.4765 14.2897 12.6976 14.7679C11.9187 15.2462 11.2758 15.9185 10.8312 16.7199C8.91161 20.0699 10.3438 24.9899 12.1839 27.7199C13.1088 29.0399 14.1731 30.5199 15.5953 30.4699C17.0176 30.4199 17.4851 29.5899 19.156 29.5899C20.827 29.5899 21.2845 30.4699 22.7267 30.4399C24.1688 30.4099 25.1435 29.1099 26.0287 27.7699C26.6909 26.8261 27.2011 25.7833 27.5405 24.6799C26.6832 24.3158 25.951 23.7066 25.4347 22.928C24.9184 22.1494 24.6408 21.2356 24.6363 20.2999Z" fill="white"/>
<path d="M21.8813 12.21C22.6869 11.2354 23.0829 9.98341 22.9853 8.71997C21.7524 8.85375 20.6138 9.44578 19.7926 10.38C19.3932 10.8376 19.0874 11.3699 18.8928 11.9464C18.6983 12.523 18.6187 13.1325 18.6587 13.74C19.2759 13.7461 19.8865 13.6116 20.4446 13.3466C21.0027 13.0816 21.4938 12.693 21.8813 12.21Z" fill="white"/>
</svg>
