<svg width="134" height="40" viewBox="0 0 134 40" fill="none" xmlns="http://www.w3.org/2000/svg">
<path d="M124.125 0H7.74815C7.05574 0.00985532 6.36507 0.0700248 5.68197 0.18C4.99904 0.289322 4.33721 0.498366 3.71911 0.799995C3.10122 1.11081 2.53669 1.51222 2.04551 1.99C1.55254 2.45987 1.14093 3.00349 0.826469 3.6C0.511475 4.20134 0.292055 4.84526 0.175625 5.51C0.0603368 6.17085 0.0015958 6.83979 0 7.51C0 7.82 0 8.12 0 8.43V31.6C0 31.92 0 32.22 0 32.53C0.0015958 33.2002 0.0603368 33.8691 0.175625 34.53C0.293663 35.1912 0.51303 35.8315 0.826469 36.43C1.14208 37.0139 1.55381 37.5442 2.04551 38C2.53743 38.4742 3.10192 38.8722 3.71911 39.18C4.33884 39.4799 4.99988 39.6921 5.68197 39.81C6.36533 39.9166 7.056 39.9735 7.74815 39.98H126.202C126.894 39.9735 127.585 39.9166 128.268 39.81C128.953 39.6896 129.617 39.4776 130.241 39.18C130.854 38.8695 131.414 38.4717 131.904 38C132.398 37.5271 132.81 36.98 133.123 36.38C133.443 35.7848 133.659 35.1429 133.764 34.48C133.881 33.819 133.947 33.1505 133.96 32.48V31.6C133.96 31.24 133.96 30.88 133.96 30.51V9.53C133.96 9.17 133.96 8.79999 133.96 8.43999V7.51999C133.947 6.84951 133.881 6.18097 133.764 5.52C133.654 4.85498 133.438 4.21058 133.123 3.61C132.489 2.40768 131.481 1.42834 130.241 0.809997C129.618 0.511163 128.953 0.302275 128.268 0.189995C127.585 0.0800193 126.894 0.0198574 126.202 0.0100021H124.136L124.125 0Z" fill="#A6A6A6"/>
<path d="M8.77136 38.981H7.84283C7.1966 38.9728 6.55182 38.9197 5.91354 38.822C5.31434 38.7177 4.73399 38.5303 4.19059 38.2657C3.66199 38.0081 3.17819 37.6729 2.75652 37.2722C2.33486 36.8707 1.98612 36.4039 1.72482 35.8912C1.45006 35.3724 1.25873 34.8163 1.15738 34.2421C1.05592 33.6241 1.00075 32.9999 0.99231 32.3743C0.99231 32.1657 0.99231 31.4702 0.99231 31.4702V8.52069C0.99231 8.52069 0.99231 7.83519 0.99231 7.63649C1.00075 7.0109 1.05592 6.3867 1.15738 5.76873C1.25873 5.19451 1.45006 4.63844 1.72482 4.11955C1.98901 3.60563 2.33737 3.136 2.75652 2.72866C3.17924 2.32101 3.66255 1.97615 4.19059 1.70537C4.72929 1.44249 5.30701 1.26152 5.90322 1.16889C6.54125 1.06788 7.18603 1.01144 7.83251 1H126.097C126.74 1.01097 127.381 1.06742 128.016 1.16889C128.615 1.26145 129.196 1.44241 129.739 1.70537C130.809 2.23896 131.681 3.07891 132.235 4.10961C132.504 4.62588 132.688 5.17873 132.782 5.74886C132.89 6.36976 132.952 6.99722 132.968 7.62655V8.51076C132.968 8.88828 132.968 9.236 132.968 9.59366V30.3873C132.968 30.745 132.968 31.1026 132.968 31.4603V32.3842C132.951 32.9999 132.892 33.6139 132.793 34.2222C132.69 34.798 132.502 35.3567 132.235 35.8813C131.967 36.3867 131.619 36.8492 131.204 37.2523C130.78 37.655 130.292 37.9904 129.759 38.2458C129.215 38.5061 128.635 38.6901 128.036 38.7922C127.398 38.8899 126.753 38.943 126.107 38.9512H8.77136V38.981Z" fill="black"/>
<path d="M67.645 21.7592C67.0868 21.7498 66.5325 21.8534 66.0148 22.0639C65.4972 22.2744 65.0268 22.5876 64.6316 22.9847C64.2364 23.3818 63.9244 23.8549 63.7142 24.3758C63.504 24.8967 63.3998 25.4549 63.4079 26.0171C63.4012 26.5785 63.5063 27.1356 63.7172 27.6553C63.928 28.175 64.2401 28.6469 64.6352 29.043C65.0303 29.4391 65.5002 29.7513 66.0172 29.9612C66.5342 30.1711 67.0877 30.2744 67.645 30.265C68.2023 30.2744 68.7559 30.1711 69.2728 29.9612C69.7898 29.7513 70.2598 29.4391 70.6548 29.043C71.0499 28.6469 71.3621 28.175 71.5729 27.6553C71.7837 27.1356 71.8888 26.5785 71.8821 26.0171C71.8902 25.4549 71.786 24.8967 71.5758 24.3758C71.3656 23.8549 71.0536 23.3818 70.6584 22.9847C70.2632 22.5876 69.7928 22.2744 69.2752 22.0639C68.7575 21.8534 68.2032 21.7498 67.645 21.7592ZM67.645 28.5958C67.3192 28.5882 66.9982 28.515 66.701 28.3804C66.4038 28.2459 66.1363 28.0527 65.9143 27.8124C65.6923 27.572 65.5204 27.2894 65.4086 26.981C65.2969 26.6727 65.2475 26.3449 65.2635 26.0171C65.2461 25.6889 65.2945 25.3606 65.4058 25.0516C65.517 24.7427 65.6889 24.4595 65.9111 24.2189C66.1334 23.9782 66.4014 23.7851 66.6993 23.651C66.9972 23.5169 67.3188 23.4446 67.645 23.4384C67.9712 23.4446 68.2929 23.5169 68.5907 23.651C68.8886 23.7851 69.1567 23.9782 69.3789 24.2189C69.6011 24.4595 69.773 24.7427 69.8842 25.0516C69.9955 25.3606 70.0439 25.6889 70.0265 26.0171C70.0425 26.3449 69.9932 26.6727 69.8814 26.981C69.7696 27.2894 69.5977 27.572 69.3757 27.8124C69.1538 28.0527 68.8863 28.2459 68.589 28.3804C68.2918 28.515 67.9708 28.5882 67.645 28.5958ZM58.4067 21.7592C57.8485 21.7498 57.2942 21.8534 56.7765 22.0639C56.2589 22.2744 55.7885 22.5876 55.3933 22.9847C54.9981 23.3818 54.6861 23.8549 54.4759 24.3758C54.2657 24.8967 54.1615 25.4549 54.1696 26.0171C54.1629 26.5785 54.2681 27.1356 54.4789 27.6553C54.6897 28.175 55.0018 28.6469 55.3969 29.043C55.792 29.4391 56.2619 29.7513 56.7789 29.9612C57.2959 30.1711 57.8494 30.2744 58.4067 30.265C58.964 30.2744 59.5176 30.1711 60.0346 29.9612C60.5515 29.7513 61.0215 29.4391 61.4165 29.043C61.8116 28.6469 62.1238 28.175 62.3346 27.6553C62.5454 27.1356 62.6505 26.5785 62.6438 26.0171C62.6519 25.4549 62.5477 24.8967 62.3375 24.3758C62.1273 23.8549 61.8153 23.3818 61.4201 22.9847C61.0249 22.5876 60.5545 22.2744 60.0369 22.0639C59.5192 21.8534 58.9649 21.7498 58.4067 21.7592ZM58.4067 28.5958C58.0809 28.5882 57.7599 28.515 57.4627 28.3804C57.1655 28.2459 56.898 28.0527 56.676 27.8124C56.4541 27.572 56.2821 27.2894 56.1703 26.981C56.0586 26.6727 56.0092 26.3449 56.0252 26.0171C56.0078 25.6889 56.0562 25.3606 56.1675 25.0516C56.2787 24.7427 56.4506 24.4595 56.6728 24.2189C56.8951 23.9782 57.1631 23.7851 57.461 23.651C57.7589 23.5169 58.0805 23.4446 58.4067 23.4384C58.7329 23.4446 59.0546 23.5169 59.3524 23.651C59.6503 23.7851 59.9184 23.9782 60.1406 24.2189C60.3628 24.4595 60.5347 24.7427 60.646 25.0516C60.7572 25.3606 60.8056 25.6889 60.7882 26.0171C60.8042 26.3449 60.7549 26.6727 60.6431 26.981C60.5313 27.2894 60.3594 27.572 60.1374 27.8124C59.9155 28.0527 59.648 28.2459 59.3507 28.3804C59.0535 28.515 58.7325 28.5882 58.4067 28.5958ZM47.4121 23.0686V24.8677H51.6988C51.6338 25.7186 51.2839 26.522 50.7065 27.1465C50.2772 27.586 49.7616 27.9304 49.1926 28.1576C48.6236 28.3848 48.0138 28.4898 47.4021 28.4659C46.7769 28.4699 46.1572 28.3483 45.5792 28.1083C45.0011 27.8683 44.4764 27.5145 44.0357 27.0678C43.595 26.6211 43.2471 26.0904 43.0124 25.5067C42.7777 24.923 42.6609 24.298 42.6689 23.6683C42.661 23.0406 42.7768 22.4176 43.0095 21.8353C43.2422 21.253 43.5873 20.723 44.0247 20.2759C44.4621 19.8288 44.9832 19.4735 45.5578 19.2306C46.1324 18.9877 46.7492 18.8619 47.3724 18.8607C48.5828 18.8552 49.746 19.3333 50.6073 20.19L51.8774 18.9206C51.2856 18.3319 50.5834 17.8678 49.8116 17.5555C49.0398 17.2432 48.2139 17.0888 47.3823 17.1016C45.6336 17.0988 43.9545 17.7911 42.7096 19.0282C41.4648 20.2652 40.7548 21.947 40.7339 23.7083C40.7574 25.4678 41.4685 27.147 42.7131 28.3819C43.9576 29.6168 45.6353 30.3077 47.3823 30.305C48.2316 30.3436 49.0794 30.1986 49.8684 29.8796C50.6575 29.5607 51.3696 29.0752 51.9568 28.4559C53.0374 27.3055 53.6225 25.7713 53.5841 24.188C53.5901 23.8091 53.5568 23.4306 53.4849 23.0586L47.4121 23.0686ZM92.3731 24.4679C92.1143 23.701 91.6304 23.0314 90.9854 22.5477C90.3404 22.064 89.5647 21.789 88.7611 21.7592C88.2174 21.7581 87.6793 21.8694 87.1801 22.0864C86.6809 22.3034 86.2313 22.6213 85.8592 23.0205C85.487 23.4198 85.2002 23.8917 85.0167 24.4072C84.8331 24.9227 84.7566 25.4706 84.7919 26.0171C84.7799 26.5757 84.8797 27.1311 85.0855 27.65C85.2913 28.1689 85.5988 28.6407 85.9897 29.0372C86.3805 29.4337 86.8467 29.7467 87.3604 29.9577C87.8741 30.1687 88.4247 30.2732 88.9794 30.265C89.6735 30.2687 90.3577 30.0991 90.9708 29.7711C91.5838 29.4432 92.1065 28.9673 92.4922 28.3859L91.0533 27.3864C90.8393 27.7477 90.5355 28.0465 90.1718 28.2533C89.8081 28.4602 89.3971 28.5679 88.9794 28.5658C88.5487 28.5803 88.1235 28.4654 87.7577 28.2358C87.392 28.0062 87.1022 27.6723 86.9254 27.2765L92.5715 24.9176L92.3731 24.4679ZM86.6178 25.8872C86.5976 25.578 86.639 25.2679 86.7393 24.9751C86.8397 24.6822 86.997 24.4124 87.2022 24.1816C87.4073 23.9508 87.6562 23.7635 87.9341 23.6307C88.212 23.4979 88.5134 23.4224 88.8207 23.4084C89.1407 23.3872 89.46 23.4611 89.7387 23.621C90.0174 23.7809 90.2434 24.0198 90.3885 24.308L86.6178 25.8872ZM82.0234 30.0051H83.879V17.5114H82.0234V30.0051ZM78.987 22.7187H78.9274C78.6502 22.4008 78.3081 22.1468 77.9245 21.9743C77.5409 21.8018 77.1248 21.7148 76.7047 21.7192C75.6106 21.7583 74.5749 22.2264 73.8186 23.0237C73.0622 23.821 72.6451 24.8844 72.6561 25.9871C72.6478 27.0861 73.0668 28.1448 73.8233 28.9368C74.5799 29.7287 75.6141 30.1911 76.7047 30.225C77.1254 30.2335 77.5428 30.1483 77.927 29.9755C78.3112 29.8028 78.6529 29.5466 78.9274 29.2255H78.987V29.8452C79.0329 30.1639 79.0081 30.4889 78.9143 30.7968C78.8205 31.1047 78.6602 31.3879 78.4448 31.6259C78.2294 31.8639 77.9643 32.0508 77.6685 32.1733C77.3728 32.2957 77.0538 32.3506 76.7345 32.3339C76.2718 32.323 75.8228 32.1737 75.4446 31.9049C75.0665 31.6362 74.7763 31.2601 74.6109 30.8247L72.9935 31.5044C73.3002 32.2488 73.8195 32.8846 74.4855 33.3313C75.1516 33.7779 75.9343 34.0152 76.7345 34.0131C78.9076 34.0131 80.7037 32.7237 80.7037 29.5853V21.9491H78.987V22.7187ZM76.8635 28.5958C76.5402 28.5869 76.2221 28.5129 75.9277 28.3782C75.6333 28.2434 75.3687 28.0507 75.1495 27.8112C74.9303 27.5718 74.761 27.2906 74.6514 26.9842C74.5419 26.6777 74.4944 26.3523 74.5117 26.0271C74.4944 25.7009 74.5417 25.3745 74.6511 25.0669C74.7604 24.7593 74.9295 24.4768 75.1484 24.2358C75.3674 23.9948 75.6318 23.8001 75.9263 23.6632C76.2207 23.5263 76.5393 23.4499 76.8635 23.4384C77.1817 23.4547 77.4935 23.5353 77.7803 23.6752C78.0671 23.8151 78.3231 24.0116 78.5332 24.253C78.7432 24.4944 78.903 24.7758 79.0031 25.0805C79.1033 25.3853 79.1416 25.7071 79.116 26.0271C79.1416 26.346 79.1031 26.6669 79.0028 26.9705C78.9025 27.2741 78.7424 27.5542 78.5321 27.794C78.3218 28.0338 78.0656 28.2284 77.7789 28.3662C77.4922 28.504 77.1808 28.5821 76.8635 28.5958ZM101.056 17.5114H96.6201V30.0051H98.4757V25.2775H101.056C102.107 25.3043 103.126 24.91 103.888 24.1811C104.651 23.4521 105.096 22.4481 105.124 21.3894C105.093 20.3325 104.647 19.331 103.885 18.6042C103.122 17.8774 102.105 17.4845 101.056 17.5114ZM101.056 23.5084H98.4261V19.2205H101.056C101.625 19.2152 102.173 19.4372 102.581 19.8381C102.988 20.2389 103.221 20.7859 103.229 21.3594C103.229 21.9304 103.006 22.4787 102.609 22.8862C102.212 23.2937 101.672 23.5279 101.105 23.5383L101.056 23.5084ZM112.497 21.7093C111.82 21.6708 111.148 21.8318 110.561 22.1727C109.974 22.5135 109.498 23.0194 109.193 23.6283L110.84 24.3179C111.001 24.0156 111.247 23.7674 111.547 23.604C111.846 23.4406 112.187 23.3692 112.527 23.3984C112.762 23.3707 113.001 23.3905 113.229 23.4567C113.457 23.5229 113.669 23.6341 113.854 23.7839C114.039 23.9337 114.192 24.1191 114.305 24.3292C114.418 24.5393 114.488 24.7699 114.511 25.0076V25.1875C113.917 24.8638 113.252 24.6954 112.576 24.6978C110.81 24.6978 109.004 25.6973 109.004 27.5163C109.022 27.9021 109.116 28.2804 109.281 28.6288C109.446 28.9773 109.679 29.2889 109.966 29.5451C110.252 29.8014 110.587 29.9971 110.951 30.1208C111.314 30.2444 111.698 30.2934 112.08 30.265C112.546 30.2941 113.011 30.1962 113.427 29.9817C113.843 29.7671 114.193 29.4437 114.442 29.0456H114.511V30.0451H116.297V25.1875C116.317 22.9786 114.67 21.7392 112.546 21.7392L112.497 21.7093ZM112.279 28.5558C111.673 28.5558 110.82 28.256 110.82 27.4964C110.82 26.4969 111.872 26.167 112.805 26.167C113.398 26.1475 113.985 26.2928 114.501 26.5868C114.437 27.1271 114.183 27.6263 113.784 27.9932C113.385 28.3602 112.868 28.5705 112.328 28.5858L112.279 28.5558ZM122.777 21.9891L120.654 27.4064H120.594L118.391 21.9891H116.407L119.711 29.5553L117.826 33.7632H119.751L124.841 21.9891H122.777ZM106.097 29.9851H107.952V17.4914H106.176L106.097 29.9851Z" fill="white"/>
<path d="M10.3893 7.55629C10.0599 7.94827 9.89292 8.45292 9.92295 8.96559V31.0645C9.89016 31.5759 10.0536 32.0803 10.3794 32.4738L10.4588 32.5438L22.7534 20.19V19.9001L10.4687 7.48633L10.3893 7.55629Z" fill="url(#paint0_linear_961_134613)"/>
<path d="M26.8516 24.288L22.7534 20.19V19.9001L26.8615 15.7722L26.9508 15.8222L31.8032 18.6008C33.1924 19.3904 33.1924 20.6898 31.8032 21.4894L26.9508 24.268L26.8516 24.288Z" fill="url(#paint1_linear_961_134613)"/>
<path d="M26.9509 24.2379L22.7534 20.01L10.3894 32.4738C10.6726 32.7245 11.0338 32.8677 11.4107 32.8787C11.7875 32.8896 12.1563 32.7676 12.4534 32.5337L26.9509 24.2379Z" fill="url(#paint2_linear_961_134613)"/>
<path d="M26.9509 15.7922L12.4534 7.49631C12.1571 7.26059 11.788 7.13741 11.4106 7.14838C11.0332 7.15934 10.6717 7.30375 10.3894 7.55629L22.7534 20.0101L26.9509 15.7922Z" fill="url(#paint3_linear_961_134613)"/>
<path opacity="0.2" d="M26.8616 24.1877L12.4534 32.3836C12.1675 32.6009 11.8192 32.7185 11.4611 32.7185C11.103 32.7185 10.7546 32.6009 10.4688 32.3836L10.3894 32.4636L10.4688 32.5336C10.7546 32.7509 11.103 32.8684 11.4611 32.8684C11.8192 32.8684 12.1675 32.7509 12.4534 32.5336L26.9509 24.2377L26.8616 24.1877Z" fill="black"/>
<path opacity="0.12" d="M10.3894 32.3246C10.066 31.9335 9.90275 31.4328 9.93296 30.9246V31.0646C9.90017 31.5761 10.0636 32.0809 10.3894 32.4746L10.4688 32.3946L10.3894 32.3246Z" fill="black"/>
<path opacity="0.12" d="M31.8032 21.3094L26.8417 24.1479L26.931 24.2379L31.7833 21.4593C32.0698 21.3337 32.3176 21.133 32.5009 20.8781C32.6842 20.6231 32.7962 20.3234 32.8252 20.01C32.7656 20.2912 32.6423 20.5547 32.465 20.7801C32.2878 21.0054 32.0613 21.1866 31.8032 21.3094Z" fill="black"/>
<path opacity="0.25" d="M12.4534 7.64605L31.8032 18.7205C32.0638 18.8399 32.2935 19.0184 32.4743 19.2421C32.6551 19.4658 32.782 19.7285 32.8451 20.0099C32.8143 19.6983 32.7015 19.4006 32.5184 19.1476C32.3352 18.8946 32.0883 18.6954 31.8032 18.5706L12.4534 7.49613C11.0641 6.70652 9.93293 7.36619 9.93293 8.96539V9.10532C9.923 7.50612 11.0641 6.84645 12.4534 7.64605Z" fill="white"/>
<path d="M41.756 11.4244C43.0854 11.4475 44.4141 11.3472 45.7252 11.1246L45.8145 11.8042C44.4261 12.0522 43.0167 12.1593 41.6071 12.1241H40.9026V6.19702H45.0405V6.87668H41.756V11.4244ZM48.8807 9.59532H47.4121V14.3629H46.6381V5.36743H47.4518V8.90566H48.9204L48.8807 9.59532Z" fill="white" stroke="white" stroke-width="0.2" stroke-miterlimit="10"/>
<path d="M57.9403 9.92526V10.5949H54.3879V12.404H53.5841V10.5949H49.8729V9.92526H57.9403ZM50.7858 7.40652C50.7858 6.29708 52.0163 5.60742 53.9017 5.60742C55.787 5.60742 57.0175 6.29708 57.0175 7.40652C57.0175 8.51597 55.787 9.19563 53.9017 9.19563C52.0163 9.19563 50.7858 8.51597 50.7858 7.40652ZM51.7186 13.4635H57.0572V14.1931H50.9049V11.5744H51.7186V13.4635ZM51.5995 7.40652C51.5995 8.10617 52.5025 8.53596 53.862 8.53596C55.2214 8.53596 56.1244 8.10617 56.1244 7.40652C56.1244 6.70687 55.2313 6.26709 53.862 6.26709C52.4926 6.26709 51.5995 6.69688 51.5995 7.40652Z" fill="white" stroke="white" stroke-width="0.2" stroke-miterlimit="10"/>
<path d="M66.742 12.5638V13.1935H58.6548V12.5238H62.2767V10.8346H59.6669V8.06603H64.9459V6.66674H59.6471V5.99707H65.7398V8.7257H60.4707V10.195H65.9482V10.8546H63.1003V12.5438L66.742 12.5638Z" fill="white" stroke="white" stroke-width="0.2" stroke-miterlimit="10"/>
<path d="M76.0101 12.4536V13.1333H67.9427V12.4536H76.0101ZM75.0873 10.3447H68.9747V6.19678H74.998V6.87644H69.7785V9.67504H75.0873V10.3447Z" fill="white" stroke="white" stroke-width="0.2" stroke-miterlimit="10"/>
<path d="M79.761 6.81667H81.954V7.47634H76.7047V6.81667H78.9473V5.48734H79.761V6.81667ZM81.5372 10.2849C81.5466 10.5674 81.4965 10.8486 81.3902 11.1101C81.2838 11.3716 81.1236 11.6074 80.9201 11.802C80.7166 11.9966 80.4745 12.1455 80.2097 12.2389C79.9449 12.3323 79.6634 12.3681 79.3839 12.3439C79.1044 12.3681 78.8229 12.3323 78.5581 12.2389C78.2933 12.1455 78.0512 11.9966 77.8477 11.802C77.6443 11.6074 77.484 11.3716 77.3777 11.1101C77.2713 10.8486 77.2212 10.5674 77.2306 10.2849C77.2168 10 77.2637 9.71545 77.3682 9.45032C77.4726 9.18518 77.6322 8.94562 77.8361 8.74775C78.0401 8.54987 78.2838 8.39826 78.5507 8.30309C78.8177 8.20792 79.1018 8.1714 79.3839 8.19599C79.6643 8.17936 79.945 8.22139 80.2084 8.31943C80.4719 8.41747 80.7123 8.56939 80.9146 8.76563C81.1169 8.96186 81.2766 9.19816 81.3838 9.45964C81.4909 9.72112 81.5432 10.0021 81.5372 10.2849ZM80.7632 10.2849C80.7687 10.101 80.7368 9.91786 80.6694 9.7468C80.602 9.57573 80.5006 9.42036 80.3715 9.29023C80.2423 9.1601 80.088 9.05797 79.9182 8.99011C79.7483 8.92225 79.5665 8.8901 79.3839 8.89564C79.2005 8.8887 79.0176 8.91982 78.8466 8.98705C78.6756 9.05429 78.5201 9.15621 78.3898 9.28648C78.2596 9.41676 78.1573 9.57261 78.0893 9.74437C78.0213 9.91612 77.9891 10.1001 77.9947 10.2849C77.989 10.4693 78.0213 10.6529 78.0893 10.8241C78.1574 10.9954 78.2599 11.1506 78.3903 11.2801C78.5207 11.4096 78.6763 11.5106 78.8473 11.5767C79.0183 11.6428 79.201 11.6726 79.3839 11.6643C79.5657 11.6697 79.7466 11.6379 79.9158 11.5706C80.0849 11.5034 80.2387 11.4021 80.3678 11.2731C80.4968 11.144 80.5984 10.9899 80.6664 10.82C80.7344 10.6501 80.7673 10.4681 80.7632 10.2849ZM85.0599 9.75521H83.6012V14.3429H82.7875V5.34741H83.6012V9.02557H85.0599V9.75521Z" fill="white" stroke="white" stroke-width="0.2" stroke-miterlimit="10"/>
<path d="M90.0709 6.34691C90.0934 7.69842 89.7104 9.0253 88.9722 10.1541C88.2339 11.2829 87.1747 12.161 85.9331 12.6737L85.4965 12.0041C86.5227 11.6071 87.418 10.9286 88.081 10.0453C88.7439 9.16202 89.148 8.10934 89.2473 7.00658H85.9033V6.34691H90.0709ZM92.6807 5.34741V14.3429H91.867V5.34741H92.6807Z" fill="white" stroke="white" stroke-width="0.2" stroke-miterlimit="10"/>
<defs>
<linearGradient id="paint0_linear_961_134613" x1="21.6718" y1="8.72571" x2="4.89061" y2="25.386" gradientUnits="userSpaceOnUse">
<stop stop-color="#00A0FF"/>
<stop offset="0.01" stop-color="#00A1FF"/>
<stop offset="0.26" stop-color="#00BEFF"/>
<stop offset="0.51" stop-color="#00D2FF"/>
<stop offset="0.76" stop-color="#00DFFF"/>
<stop offset="1" stop-color="#00E3FF"/>
</linearGradient>
<linearGradient id="paint1_linear_961_134613" x1="33.6092" y1="20.0101" x2="9.59554" y2="20.0101" gradientUnits="userSpaceOnUse">
<stop stop-color="#FFE000"/>
<stop offset="0.41" stop-color="#FFBD00"/>
<stop offset="0.78" stop-color="#FFA500"/>
<stop offset="1" stop-color="#FF9C00"/>
</linearGradient>
<linearGradient id="paint2_linear_961_134613" x1="24.6686" y1="22.3089" x2="1.92056" y2="44.893" gradientUnits="userSpaceOnUse">
<stop stop-color="#FF3A44"/>
<stop offset="1" stop-color="#C31162"/>
</linearGradient>
<linearGradient id="paint3_linear_961_134613" x1="7.27359" y1="0.199967" x2="17.4382" y2="10.2814" gradientUnits="userSpaceOnUse">
<stop stop-color="#32A071"/>
<stop offset="0.07" stop-color="#2DA771"/>
<stop offset="0.48" stop-color="#15CF74"/>
<stop offset="0.8" stop-color="#06E775"/>
<stop offset="1" stop-color="#00F076"/>
</linearGradient>
</defs>
</svg>
